PathFileType	4	(X/Y/Z)	/Users/niels/Desktop/University/Third Semester/Perception and Action/Exam/Gymnastics Motion Tracking/Code for Gym Tracking/Analyzed Data/Webcam_Backflip/id19_1_trajectory_Sports2D/id19_1_trajectory_Sports2D_px_person00.trc
DataRate	CameraRate	NumFrames	NumMarkers	Units	OrigDataRate	OrigDataStartFrame	OrigNumFrames
29.702970297029704	29.702970297029704	11	22	m	29.702970297029704	50	101
Frame#	Time	Hip			RHip			RKnee			RAnkle			RBigToe			RSmallToe			RHeel			LHip			LKnee			LAnkle			LBigToe			LSmallToe			LHeel			Neck			Head			Nose			RShoulder			RElbow			RWrist			LShoulder			LElbow			LWrist		
		X1	Y1	Z1	X2	Y2	Z2	X3	Y3	Z3	X4	Y4	Z4	X5	Y5	Z5	X6	Y6	Z6	X7	Y7	Z7	X8	Y8	Z8	X9	Y9	Z9	X10	Y10	Z10	X11	Y11	Z11	X12	Y12	Z12	X13	Y13	Z13	X14	Y14	Z14	X15	Y15	Z15	X16	Y16	Z16	X17	Y17	Z17	X18	Y18	Z18	X19	Y19	Z19	X20	Y20	Z20	X21	Y21	Z21	X22	Y22	Z22
50	1.6833333333333331	0.9958898386894961	-0.4894860743156826	0.0	0.9986155817234892	-0.48899276283006937	0.0	0.9978532440520209	-0.39334270613833777	0.0	1.0240222829686114	-0.32511234173398107	0.0	1.0147529689344361	-0.28949448971621367	0.0	1.022610242371832	-0.2942397122098717	0.0	1.0321067785130518	-0.3204496987837625	0.0	0.9962600875231131	-0.48395164303098764	0.0	0.9982120714835285	-0.39111580337309304	0.0	1.021519122390785	-0.3235549017506259	0.0	1.0162899643185739	-0.28640489974216654	0.0	1.016846138119138	-0.28756047675587837	0.0	1.030416919263492	-0.32063678484250197	0.0	0.8894167336378387	-0.45784411775110434	0.0	0.8382746953770596	-0.429543361599465	0.0	0.869890486103703	-0.4275681673381174	0.0	0.8959284596501395	-0.4554334593391807	0.0	0.9564270078403072	-0.43375675893605775	0.0	0.9834833929821292	-0.38781436665696767	0.0	0.8994474943898318	-0.4550222943578922	0.0	0.9559474287509375	-0.42855436517246004	0.0	0.9807286811292821	-0.3872258679233995	0.0
51	1.7169999999999999	1.0075555735075792	-0.4706719177689012	0.0	1.0101073947351389	-0.46814463871667855	0.0	0.9773719839058284	-0.3803948278151504	0.0	0.9731768116113119	-0.3079186120650308	0.0	0.951925612109736	-0.2799583571390865	0.0	0.9609116807105993	-0.28091222901794954	0.0	0.9767506171119321	-0.3015462192381172	0.0	1.0080597648818448	-0.46573392982097084	0.0	0.9780736255755712	-0.37899957044462074	0.0	0.9714451392391648	-0.307428993928486	0.0	0.9537569722457653	-0.277292852281235	0.0	0.9547923717294973	-0.2777108379280478	0.0	0.9753201188491178	-0.3021437051981868	0.0	0.8996400088840295	-0.46988819002605026	0.0	0.8455388625850188	-0.460026895397966	0.0	0.8713184726061477	-0.4501487650250345	0.0	0.9079791230971338	-0.46406041459907094	0.0	0.9656130588607916	-0.43319611786918183	0.0	0.9819530462089823	-0.38968087709595967	0.0	0.9095437623090472	-0.46441047527769685	0.0	0.9633652019167195	-0.4296206526798888	0.0	0.9765315337275519	-0.388249431665427	0.0
52	1.7506666666666666	1.0164897954327714	-0.45105717046945953	0.0	1.018129448145267	-0.44707379839594413	0.0	0.9572307006983867	-0.37605316488842827	0.0	0.9234619831495646	-0.3107985802963371	0.0	0.8938562723834219	-0.29376630615342275	0.0	0.9023214255162255	-0.29135935468298263	0.0	0.922553262760783	-0.30370955803516453	0.0	1.017456951696768	-0.4466350583646573	0.0	0.9587955635120193	-0.37475756694974033	0.0	0.9228669180999544	-0.31042461425522666	0.0	0.8958926986445884	-0.2911056360112375	0.0	0.8976039348622281	-0.29038130528221884	0.0	0.9220017288889353	-0.30405953919814005	0.0	0.914929976452845	-0.4839750879496272	0.0	0.8624957593254468	-0.4940979346032687	0.0	0.8803839273710271	-0.47822748354557665	0.0	0.9223285476078645	-0.47424344532363266	0.0	0.9708130858556494	-0.4309549427604072	0.0	0.97364997872758	-0.39154182717728586	0.0	0.9241800570138131	-0.47571212533059093	0.0	0.9681774092665016	-0.42962876194306826	0.0	0.9651946263239336	-0.3908300317484997	0.0
53	1.784333333333333	1.0212008957424603	-0.43264407362659063	0.0	1.021453820840483	-0.4280770949210221	0.0	0.9390116756172184	-0.38011190852769067	0.0	0.8800219778129382	-0.3306362752889974	0.0	0.8464421903400658	-0.3262197912345069	0.0	0.8528872576289935	-0.3210645706890859	0.0	0.8752043704642729	-0.3234915019984853	0.0	1.0226074844412811	-0.4287173273912895	0.0	0.9415385072275616	-0.378416168482804	0.0	0.8806689551741333	-0.3295611043124414	0.0	0.8485207836844597	-0.3231256659988761	0.0	0.8513553492583371	-0.32080714729700144	0.0	0.8760292350380272	-0.32309395840545957	0.0	0.9352796412274323	-0.49809828325317135	0.0	0.8900928920436898	-0.5274796388377474	0.0	0.8986848414208638	-0.5081829331274967	0.0	0.9390218531722976	-0.4846929655505035	0.0	0.9721272481557023	-0.42954006914220866	0.0	0.9599448274701843	-0.3957619298953206	0.0	0.943085238141921	-0.48747800945551084	0.0	0.9701829259535466	-0.4304395160349846	0.0	0.94820787476706	-0.3972013473981263	0.0
54	1.8179999999999998	1.0210842752048115	-0.41750178973421653	0.0	1.0198179098319826	-0.4134218390287395	0.0	0.9238883445141501	-0.3917289417321254	0.0	0.8464162439988877	-0.3633854770084361	0.0	0.8135689224003555	-0.3719221956155353	0.0	0.8169283039793845	-0.36472834201977533	0.0	0.838323702797894	-0.3567487794448424	0.0	1.022889473716942	-0.4142526785718262	0.0	0.9270376141050681	-0.3895737630000117	0.0	0.8482056127210515	-0.3609986288720088	0.0	0.8152901257237318	-0.36764332750473355	0.0	0.8196333090622585	-0.3635622227287537	0.0	0.8408341515496389	-0.3551673960817565	0.0	0.9598324747029816	-0.5101674742520935	0.0	0.9275580269544674	-0.5556084087439757	0.0	0.9261201271497496	-0.5355200110663652	0.0	0.9581552154337205	-0.49398565554165047	0.0	0.9707997893120056	-0.4316836899769532	0.0	0.9430090090473371	-0.40482837335479815	0.0	0.9656639758568903	-0.4979335357673888	0.0	0.9704078915667899	-0.4341805459097954	0.0	0.9289404442157735	-0.40916259218878065	0.0
55	1.8516666666666666	1.0163838003032473	-0.4074454343076008	0.0	1.0137579084615176	-0.4048151987696791	0.0	0.912632364426462	-0.4097668013265138	0.0	0.8246104378220835	-0.40496506667110027	0.0	0.796963998223498	-0.42586049701682405	0.0	0.7967015720452086	-0.41746953537195247	0.0	0.8137480947885382	-0.39934416344223794	0.0	1.0187263715788824	-0.4050921935146813	0.0	0.9159174598495636	-0.4074917677645054	0.0	0.8273538376692893	-0.4009408091105869	0.0	0.7979743573807985	-0.41959062950132453	0.0	0.8037191740449027	-0.41392047023819095	0.0	0.8178564380270639	-0.3962128712033747	0.0	0.9869026146709685	-0.5185705591047238	0.0	0.9721212026640025	-0.5747631355885954	0.0	0.9607472824232216	-0.5561777895839681	0.0	0.9795025248925405	-0.5011288161456775	0.0	0.9689786775969398	-0.4394767411671701	0.0	0.9266309459279429	-0.4207140656213724	0.0	0.9907988680887079	-0.5055930602063052	0.0	0.9709746316059542	-0.4425240981879718	0.0	0.9132205500691402	-0.42738326682787037	0.0
56	1.885333333333333	1.0080151694594677	-0.404009859179156	0.0	1.0043748904650054	-0.4032553810933735	0.0	0.9056347359707521	-0.43322155116657707	0.0	0.8149554103051198	-0.45186440250263094	0.0	0.796192969616904	-0.4838609656029849	0.0	0.7922978051051184	-0.47517781805213183	0.0	0.8017547523860359	-0.44759388998469246	0.0	1.0111400016754855	-0.40250255532193707	0.0	0.9087679516695243	-0.4313028165653762	0.0	0.8184905585326908	-0.44624263262180286	0.0	0.7965478773163909	-0.4752890274326199	0.0	0.8029877173086591	-0.46821507782558713	0.0	0.8069170354135752	-0.4426724716680436	0.0	1.0142469757774197	-0.5225753567097713	0.0	1.0193663444890786	-0.5830954157353012	0.0	0.9992217335758107	-0.5677862190477418	0.0	1.0021696328441754	-0.5058586414532177	0.0	0.9690939507745112	-0.4536635924361311	0.0	0.9163904399453127	-0.4440265913680433	0.0	1.016530372385737	-0.5098085870931517	0.0	0.9742067154425424	-0.4561638244726193	0.0	0.9075613943062184	-0.45137566189032674	0.0
57	1.9189999999999998	0.997383782381995	-0.40833204528571243	0.0	0.9931121204754064	-0.40912149193433345	0.0	0.9029514878032843	-0.46122826879758555	0.0	0.8164232040974057	-0.5014831260520112	0.0	0.8090432906441677	-0.5424154606353028	0.0	0.801928581681961	-0.5342296967976834	0.0	0.8013665651206895	-0.49878740975178026	0.0	1.001430113183881	-0.40742282937688856	0.0	0.9059352748310741	-0.4600587447839061	0.0	0.8206157421645084	-0.49469516831027355	0.0	0.80907402570418	-0.5320242991731675	0.0	0.8152307916129133	-0.5236511604193278	0.0	0.8067258895092262	-0.49205477051337204	0.0	1.039388630700271	-0.5224535415816689	0.0	1.0642304785556107	-0.5810103830844917	0.0	1.0374300891926826	-0.5703032660155806	0.0	1.0244441573379757	-0.5084268982524949	0.0	0.9730476665780311	-0.4733303611993586	0.0	0.9170049080431941	-0.4739565949830711	0.0	1.0401619917285563	-0.5107478431671153	0.0	0.9814575480365941	-0.47445718980721946	0.0	0.9150219765623216	-0.4801817571124958	0.0
58	1.9526666666666666	0.9860618895241352	-0.42096840161874055	0.0	0.9814733184886797	-0.4224203001480148	0.0	0.9043491001203164	-0.49296218987962287	0.0	0.8271261929991508	-0.5520761780167308	0.0	0.8320819058853329	-0.5987332693355527	0.0	0.8224577729912987	-0.5916330074994575	0.0	0.8108620088260909	-0.5513499098111168	0.0	0.990859006703141	-0.4205486080723437	0.0	0.9072819063680263	-0.49279837309655705	0.0	0.831764405694864	-0.5449193524098236	0.0	0.8320204137288775	-0.5878077066406945	0.0	0.8369775285616549	-0.5784603594784431	0.0	0.8154264640972361	-0.5432298239509419	0.0	1.0599652809670317	-0.5193824692871554	0.0	1.1022231636877886	-0.5707670256443814	0.0	1.071202743080525	-0.5656878615173997	0.0	1.04408372261738	-0.5093073488367967	0.0	0.9816647084482832	-0.49628003530991316	0.0	0.9294648768060876	-0.5087906600140013	0.0	1.0590242788533328	-0.5092456940845614	0.0	0.9925866602983234	-0.49571452681694594	0.0	0.9337410240141513	-0.51258946588547	0.0
59	1.9863333333333333	0.9754112201149945	-0.44181236442734945	0.0	0.9707689681247685	-0.4430589964095566	0.0	0.9092879283416061	-0.5278373833394822	0.0	0.8447900553559808	-0.6025586486200669	0.0	0.8612498962374606	-0.6511449344821294	0.0	0.850084649029779	-0.6455753347950892	0.0	0.8281768740519311	-0.6044319443479736	0.0	0.980456801078479	-0.4419903771547949	0.0	0.9121386802251701	-0.5287065891683832	0.0	0.8494768910785071	-0.5959636220828627	0.0	0.8611296024893028	-0.6412869557739721	0.0	0.8641335977350257	-0.631643366125747	0.0	0.8310635514967702	-0.5958518263568585	0.0	1.0742374539367554	-0.5152150942789484	0.0	1.1302808453477446	-0.5557058754631671	0.0	1.0971693113114211	-0.5569587857682615	0.0	1.0589678560358862	-0.5092977007382207	0.0	0.9946645114494047	-0.5199460607566896	0.0	0.952141544424239	-0.5456154667082905	0.0	1.0713813740816651	-0.5067815378959966	0.0	1.0066478818042934	-0.5179315731701386	0.0	0.9603455262905397	-0.5463566322301928	0.0
60	2.02	0.9664869122367097	-0.4701587284185803	0.0	0.9621124524704965	-0.4708108075793177	0.0	0.9170504669264543	-0.565619246351471	0.0	0.8669750148188352	-0.652338272714254	0.0	0.8924530133850691	-0.6992203544921811	0.0	0.8809387383667652	-0.6955516251858769	0.0	0.850985617109934	-0.6573329884190442	0.0	0.9711322291183361	-0.4709837391673365	0.0	0.9196164235448145	-0.5671744395234793	0.0	0.8711433997870177	-0.6469111909748615	0.0	0.8922562550938592	-0.6913685742894036	0.0	0.8928148215819195	-0.6822706220885644	0.0	0.8517651518823658	-0.6492768425332383	0.0	1.0814697668275373	-0.5121608188927446	0.0	1.1470471703048348	-0.5394497658250307	0.0	1.1134715705489358	-0.5473529789559314	0.0	1.0676967737886163	-0.509773671204272	0.0	1.0110193023079703	-0.5421157454360238	0.0	0.9830465050394235	-0.5799649892736642	0.0	1.0767275106374725	-0.5053109830141769	0.0	1.0228335809114562	-0.5391657197703789	0.0	0.9928014632740165	-0.5777009948879609	0.0
